<svg xmlns="http://www.w3.org/2000/svg" viewBox="0 0 326.16 377.03"><defs><style>.cls-1,.cls-3{fill:#d9e1ec;}.cls-1{stroke:#36495e;stroke-miterlimit:10;stroke-width:6.16px;}.cls-2{fill:#35495e;}.cls-3{stroke:#a5abb3;stroke-linejoin:round;stroke-width:1.85px;}.cls-4{fill:#42b883;}</style></defs><title>logoSVG</title><g id="Layer_2" data-name="Layer 2"><g id="Layer_1-2" data-name="Layer 1"><polygon class="cls-1" points="3.08 94.49 164 3.54 323.08 94.49 323.08 280.47 164 373.46 3.08 279.66 3.08 94.49"/><path class="cls-2" d="M82,266.79a1.52,1.52,0,0,1,.91.81,1.55,1.55,0,0,1,.07,1.22L77.34,285h0l-.09.2,0,0-.11.18,0,0-.14.14,0,0-.16.14,0,0-.18.09h0l-.16.07h0l-.18,0h-.07l-.26,0-.26,0h-.07l-.18,0h0l-.16-.07h0l-.16-.09h0a.57.57,0,0,1-.16-.14l0,0-.12-.14,0,0-.11-.18,0,0-.09-.2h0l-5.67-16.15a1.55,1.55,0,0,1,.07-1.22,1.52,1.52,0,0,1,.91-.81,1.55,1.55,0,0,1,1.22.07,1.52,1.52,0,0,1,.81.91l4.17,11.87L80,267.76a1.52,1.52,0,0,1,.81-.91l.6-.28Z"/><path class="cls-2" d="M98.14,266.62a1.57,1.57,0,0,1,1.57,1.57V279.1a6.92,6.92,0,1,1-13.85,0V268.19a1.57,1.57,0,0,1,3.14,0V279.1a3.78,3.78,0,1,0,7.57,0V268.19a1.57,1.57,0,0,1,1.57-1.57Z"/><path class="cls-2" d="M115.4,282.82a1.51,1.51,0,0,1,1.12.47,1.55,1.55,0,0,1,.47,1.14,1.62,1.62,0,0,1-1.6,1.6h-9.8a1.62,1.62,0,0,1-1.6-1.6V268.21a1.52,1.52,0,0,1,.47-1.14,1.5,1.5,0,0,1,1.12-.47h0l9.79,0a1.55,1.55,0,0,1,1.14.47,1.58,1.58,0,0,1,.46,1.14,1.62,1.62,0,0,1-1.6,1.6h0l-8.17,0v4.91h5.9a1.58,1.58,0,0,1,1.14.46,1.6,1.6,0,0,1,0,2.27,1.58,1.58,0,0,1-1.14.46h-5.9v4.91Z"/><path class="cls-2" d="M133,285.42h0l-9.73-12.52v11.55a1.6,1.6,0,0,1-3.19,0V268.22a1.59,1.59,0,0,1,1.08-1.5,1.5,1.5,0,0,1,1,0,1.55,1.55,0,0,1,.8.55l9.73,12.53V268.22a1.53,1.53,0,0,1,.46-1.12,1.55,1.55,0,0,1,1.14-.47,1.62,1.62,0,0,1,1.6,1.6v16.24a.37.37,0,0,1,0,.08v.07a.37.37,0,0,1,0,.08.19.19,0,0,1,0,.08v.07a.22.22,0,0,1,0,.08l0,.07,0,.08,0,.07,0,.07,0,.08,0,0-.05.08,0,.05-.05.05-.05.05-.05.05-.07.05h0l-.2.14h0l-.22.09h0a.93.93,0,0,1-.23.05H134l-.14,0h-.05l-.11,0-.05,0-.11,0-.05,0-.09,0-.05,0-.09-.07-.05,0-.12-.11h0l-.05-.05Z"/><path class="cls-2" d="M148.91,286a9.73,9.73,0,1,1,6.88-2.86A9.33,9.33,0,0,1,148.91,286Zm0-16.24a6.52,6.52,0,1,0,4.62,1.91A6.27,6.27,0,0,0,148.91,269.79Z"/><path class="cls-2" d="M174.84,280.25a5.73,5.73,0,0,1-1.94,4.1,6.29,6.29,0,0,1-4.39,1.68,8.15,8.15,0,0,1-4-.95,5.13,5.13,0,0,1-2.67-3.3,1.56,1.56,0,0,1,.16-1.2,1.54,1.54,0,0,1,1-.73,1.57,1.57,0,0,1,1.21.16,1.54,1.54,0,0,1,.73,1,2.24,2.24,0,0,0,1.33,1.42,5.27,5.27,0,0,0,2.22.45,3.18,3.18,0,0,0,2.18-.8,2.63,2.63,0,0,0,1-1.95,1.68,1.68,0,0,0-.5-1.26,3.81,3.81,0,0,0-2.82-.92h-.07a6.83,6.83,0,0,1-5.08-1.91,4.74,4.74,0,0,1-1.35-3.59,5.74,5.74,0,0,1,1.94-4.11,6.26,6.26,0,0,1,4.39-1.68,8.16,8.16,0,0,1,4,.95,5.14,5.14,0,0,1,2.67,3.3,1.53,1.53,0,0,1-.18,1.21,1.49,1.49,0,0,1-1,.73,1.56,1.56,0,0,1-1.21-.16,1.54,1.54,0,0,1-.73-1,2.24,2.24,0,0,0-1.34-1.42,5.18,5.18,0,0,0-2.21-.45,3.24,3.24,0,0,0-2.19.8,2.68,2.68,0,0,0-1,1.95,1.73,1.73,0,0,0,.5,1.27,3.85,3.85,0,0,0,2.82.91h.07a6.8,6.8,0,0,1,5.08,1.92A4.72,4.72,0,0,1,174.84,280.25Z"/><path class="cls-2" d="M185.13,285.91a1.57,1.57,0,0,1-.87-.87,1.59,1.59,0,0,1,0-1.22L186,279.7h0l5-12a.84.84,0,0,1,.07-.14l0-.07.05-.07,0-.07.05-.05,0-.05.05-.07.05,0,.07-.05.05,0,.07-.05.05,0,.08,0,.09,0,0,0,.05,0,.09,0,.09,0h.68l.09,0h.05a1.1,1.1,0,0,1,.3.12l.05,0,.08.05.05,0,.07.05.05,0,.07.05s0,0,0,.05l.05.07,0,.05.05.07a.18.18,0,0,0,0,.07l0,.07a.92.92,0,0,1,.07.14l5,12h0l1.72,4.13a1.6,1.6,0,0,1-.87,2.08,1.6,1.6,0,0,1-.61.12,1.47,1.47,0,0,1-1.48-1l-1.3-3.14h-7.84l-1.3,3.14a1.47,1.47,0,0,1-1.47,1h-.31Zm9.91-7.19-2.61-6.28-2.6,6.28Z"/><path class="cls-2" d="M205.18,286a1.62,1.62,0,0,1-1.6-1.6V268.29a1.6,1.6,0,0,1,3.19,0v16.15a1.62,1.62,0,0,1-1.6,1.6Z"/><path class="cls-2" d="M224.19,272.24a5.19,5.19,0,0,1-1.11,3.24,5.81,5.81,0,0,1-2.82,2l3.07,6.23a1.61,1.61,0,0,1-.73,2.13,1.61,1.61,0,0,1-.7.16,1.47,1.47,0,0,1-1.42-.89l-3.59-7.27h-2.75v6.46a1.6,1.6,0,0,1-1.6,1.58,1.57,1.57,0,0,1-1.58-1.58V268.19a1.59,1.59,0,0,1,1.58-1.6h5.6a6,6,0,0,1,4.26,1.65A5.26,5.26,0,0,1,224.19,272.24Zm-5.93,2.45a3.05,3.05,0,0,0,1.95-.75,2.23,2.23,0,0,0,0-3.45,3,3,0,0,0-2-.72h-4v4.91Z"/><path class="cls-2" d="M239,282.82a1.51,1.51,0,0,1,1.12.47,1.55,1.55,0,0,1,.47,1.14A1.62,1.62,0,0,1,239,286h-9.8a1.62,1.62,0,0,1-1.6-1.6V268.21a1.52,1.52,0,0,1,.47-1.14,1.5,1.5,0,0,1,1.12-.47h0l9.79,0a1.55,1.55,0,0,1,1.14.47,1.58,1.58,0,0,1,.46,1.14,1.62,1.62,0,0,1-1.6,1.6h0l-8.17,0v4.91h5.9a1.58,1.58,0,0,1,1.14.46,1.6,1.6,0,0,1,0,2.27,1.58,1.58,0,0,1-1.14.46h-5.9v4.91Z"/><path class="cls-2" d="M255.9,280.25a5.73,5.73,0,0,1-1.94,4.1,6.29,6.29,0,0,1-4.39,1.68,8.15,8.15,0,0,1-4-.95,5.13,5.13,0,0,1-2.67-3.3,1.56,1.56,0,0,1,.16-1.2,1.54,1.54,0,0,1,1-.73,1.57,1.57,0,0,1,1.21.16,1.54,1.54,0,0,1,.73,1,2.24,2.24,0,0,0,1.33,1.42,5.27,5.27,0,0,0,2.22.45,3.18,3.18,0,0,0,2.18-.8,2.63,2.63,0,0,0,1-1.95,1.68,1.68,0,0,0-.5-1.26,3.81,3.81,0,0,0-2.82-.92h-.07a6.83,6.83,0,0,1-5.08-1.91,4.74,4.74,0,0,1-1.35-3.59,5.74,5.74,0,0,1,1.94-4.11,6.26,6.26,0,0,1,4.39-1.68,8.16,8.16,0,0,1,4,.95,5.14,5.14,0,0,1,2.67,3.3,1.53,1.53,0,0,1-.18,1.21,1.49,1.49,0,0,1-1,.73,1.56,1.56,0,0,1-1.21-.16,1.54,1.54,0,0,1-.73-1,2.24,2.24,0,0,0-1.34-1.42,5.18,5.18,0,0,0-2.21-.45,3.24,3.24,0,0,0-2.19.8,2.68,2.68,0,0,0-1,1.95,1.73,1.73,0,0,0,.5,1.27,3.85,3.85,0,0,0,2.82.91h.07a6.8,6.8,0,0,1,5.08,1.92A4.72,4.72,0,0,1,255.9,280.25Z"/><path class="cls-2" d="M101.44,311.35a.6.6,0,0,1-.17.43.59.59,0,0,1-.42.17.58.58,0,0,1-.6-.6v-13a.54.54,0,0,1,.44-.57.54.54,0,0,1,.67.27l5.92,9.78,5.92-9.78a.54.54,0,0,1,.66-.27.54.54,0,0,1,.44.57v13a.58.58,0,0,1-.18.43.57.57,0,0,1-.42.17.59.59,0,0,1-.42-.17.6.6,0,0,1-.17-.43V300.46l-5.33,8.8h0l0,0,0,0,0,0-.05,0h0l-.06,0-.05,0h-.34l0,0-.06,0h0l0,0,0,0,0,0,0,0h0l-5.33-8.8Z"/><path class="cls-2" d="M128.86,311.94a.61.61,0,0,1-.6-.6V298.29a.55.55,0,0,1,.18-.42.53.53,0,0,1,.42-.18l7.88,0a.55.55,0,0,1,.42.18.57.57,0,0,1,.18.42.58.58,0,0,1-.18.43.56.56,0,0,1-.42.17l-7.29,0v5.34h5.45a.6.6,0,0,1,0,1.19h-5.45v5.34h7.29a.6.6,0,0,1,0,1.19Z"/><path class="cls-2" d="M151,311.94a.61.61,0,0,1-.6-.6V298.29a.55.55,0,0,1,.18-.42.53.53,0,0,1,.42-.18l7.88,0a.55.55,0,0,1,.42.18.57.57,0,0,1,.18.42.58.58,0,0,1-.18.43.56.56,0,0,1-.42.17l-7.29,0v5.34h5.45a.6.6,0,0,1,0,1.19h-5.45v5.34h7.29a.6.6,0,0,1,0,1.19Z"/><path class="cls-2" d="M175.7,298.89h-3.92a.6.6,0,0,1-.43-.17.6.6,0,0,1,0-.83.58.58,0,0,1,.43-.18h9a.59.59,0,0,1,.42,1,.57.57,0,0,1-.42.17h-3.92v12.46a.58.58,0,0,1-.6.6.59.59,0,0,1-.42-.17.6.6,0,0,1-.17-.43Z"/><path class="cls-2" d="M202.69,297.74a.59.59,0,0,1,.42.17.57.57,0,0,1,.17.42v8.74a4.87,4.87,0,0,1-9.75,0v-8.74a.58.58,0,0,1,.59-.59.56.56,0,0,1,.41.17.57.57,0,0,1,.17.42v8.74a3.71,3.71,0,0,0,7.42,0v-8.74a.57.57,0,0,1,.17-.42A.55.55,0,0,1,202.69,297.74Z"/><path class="cls-2" d="M221.71,297.7a4.21,4.21,0,0,1,3,1.14,3.66,3.66,0,0,1,.07,5.39,4.23,4.23,0,0,1-2.8,1.2h-4.17v5.92a.6.6,0,0,1-1.19,0V298.3a.61.61,0,0,1,.6-.6Zm.08,6.55a3.08,3.08,0,0,0,2.06-.8,2.47,2.47,0,0,0,0-3.77,3.09,3.09,0,0,0-2.12-.78h-3.93v5.36Z"/><rect class="cls-3" x="38.56" y="134.18" width="49.24" height="116.1"/><rect class="cls-3" x="42.87" y="122.66" width="40.63" height="11.53"/><rect class="cls-3" x="45.46" y="141.73" width="6.66" height="11.65"/><line class="cls-3" x1="43.3" y1="153.39" x2="54.28" y2="153.39"/><rect class="cls-3" x="59.85" y="141.73" width="6.66" height="11.65"/><line class="cls-3" x1="57.69" y1="153.39" x2="68.67" y2="153.39"/><rect class="cls-3" x="74.24" y="141.73" width="6.66" height="11.65"/><line class="cls-3" x1="72.08" y1="153.39" x2="83.06" y2="153.39"/><rect class="cls-3" x="45.46" y="163.32" width="6.66" height="11.65"/><line class="cls-3" x1="43.3" y1="174.97" x2="54.28" y2="174.97"/><rect class="cls-3" x="59.85" y="163.32" width="6.66" height="11.65"/><line class="cls-3" x1="57.69" y1="174.97" x2="68.67" y2="174.97"/><rect class="cls-3" x="74.24" y="163.32" width="6.66" height="11.65"/><line class="cls-3" x1="72.08" y1="174.97" x2="83.06" y2="174.97"/><rect class="cls-3" x="45.46" y="184.9" width="6.66" height="11.65"/><line class="cls-3" x1="43.3" y1="196.56" x2="54.28" y2="196.56"/><rect class="cls-3" x="59.85" y="184.9" width="6.66" height="11.65"/><line class="cls-3" x1="57.69" y1="196.56" x2="68.67" y2="196.56"/><rect class="cls-3" x="74.24" y="184.9" width="6.66" height="11.65"/><line class="cls-3" x1="72.08" y1="196.56" x2="83.06" y2="196.56"/><rect class="cls-3" x="45.46" y="206.49" width="6.66" height="11.65"/><line class="cls-3" x1="43.3" y1="218.14" x2="54.28" y2="218.14"/><rect class="cls-3" x="59.85" y="206.49" width="6.66" height="11.65"/><line class="cls-3" x1="57.69" y1="218.14" x2="68.67" y2="218.14"/><rect class="cls-3" x="74.24" y="206.49" width="6.66" height="11.65"/><line class="cls-3" x1="72.08" y1="218.14" x2="83.06" y2="218.14"/><rect class="cls-3" x="57.69" y="231.69" width="10.98" height="18.59"/><rect class="cls-3" x="44.66" y="232.84" width="8.26" height="17.45"/><rect class="cls-3" x="73.44" y="232.84" width="8.26" height="17.45"/><polygon class="cls-3" points="238.45 137.84 193.82 137.84 186 151.59 245.64 151.59 238.45 137.84"/><path class="cls-3" d="M196.15,151.59s0-8.11,8.09-8.11,8.09,8.11,8.09,8.11"/><path class="cls-3" d="M219.22,151.59s0-8.11,8.09-8.11,8.09,8.11,8.09,8.11"/><rect class="cls-3" x="190.16" y="151.59" width="51.32" height="98.7"/><path class="cls-3" d="M203.6,163.64a3.74,3.74,0,0,0-7.39,0h-.06v11h7.51v-11Z"/><line class="cls-3" x1="196.15" y1="164.49" x2="203.6" y2="164.49"/><path class="cls-3" d="M219.78,163.64a3.74,3.74,0,0,0-7.39,0h-.06v11h7.51v-11Z"/><line class="cls-3" x1="212.33" y1="164.49" x2="219.78" y2="164.49"/><path class="cls-3" d="M236,163.64a3.74,3.74,0,0,0-7.39,0h-.06v11H236v-11Z"/><line class="cls-3" x1="228.51" y1="164.49" x2="235.96" y2="164.49"/><path class="cls-3" d="M203.6,183.84a3.74,3.74,0,0,0-7.39,0h-.06v11h7.51v-11Z"/><line class="cls-3" x1="196.15" y1="184.68" x2="203.6" y2="184.68"/><path class="cls-3" d="M219.78,183.84a3.74,3.74,0,0,0-7.39,0h-.06v11h7.51v-11Z"/><line class="cls-3" x1="212.33" y1="184.68" x2="219.78" y2="184.68"/><path class="cls-3" d="M236,183.84a3.74,3.74,0,0,0-7.39,0h-.06v11H236v-11Z"/><line class="cls-3" x1="228.51" y1="184.68" x2="235.96" y2="184.68"/><path class="cls-3" d="M203.6,204a3.74,3.74,0,0,0-7.39,0h-.06v11h7.51V204Z"/><line class="cls-3" x1="196.15" y1="204.88" x2="203.6" y2="204.88"/><path class="cls-3" d="M219.78,204a3.74,3.74,0,0,0-7.39,0h-.06v11h7.51V204Z"/><line class="cls-3" x1="212.33" y1="204.88" x2="219.78" y2="204.88"/><path class="cls-3" d="M236,204a3.74,3.74,0,0,0-7.39,0h-.06v11H236V204Z"/><line class="cls-3" x1="228.51" y1="204.88" x2="235.96" y2="204.88"/><path class="cls-3" d="M203.6,224.23a3.74,3.74,0,0,0-7.39,0h-.06v11h7.51v-11Z"/><line class="cls-3" x1="196.15" y1="225.08" x2="203.6" y2="225.08"/><path class="cls-3" d="M219.78,224.23a3.74,3.74,0,0,0-7.39,0h-.06v11h7.51v-11Z"/><line class="cls-3" x1="212.33" y1="225.08" x2="219.78" y2="225.08"/><path class="cls-3" d="M236,224.23a3.74,3.74,0,0,0-7.39,0h-.06v11H236v-11Z"/><line class="cls-3" x1="228.51" y1="225.08" x2="235.96" y2="225.08"/><rect class="cls-3" x="195.09" y="240.1" width="12.48" height="10.19"/><rect class="cls-3" x="207.57" y="240.1" width="16.5" height="9.62"/><rect class="cls-3" x="224.07" y="240.1" width="11.95" height="9.62"/><rect class="cls-3" x="237.34" y="211.89" width="56.52" height="38.4"/><polyline class="cls-3" points="261.54 139.71 261.54 135.53 269.79 135.53 269.79 139.71"/><rect class="cls-3" x="263.41" y="129.76" width="4.31" height="5.77"/><polyline class="cls-3" points="264.44 129.76 265.57 101.83 266.8 129.76"/><path class="cls-3" d="M251.45,182.73V155.47s-1.54-16.17,14.32-16.17,14.48,16.32,14.48,16.32l0,27.1"/><rect class="cls-3" x="262.05" y="167.33" width="7.78" height="15.4"/><path class="cls-3" d="M246.22,200.9V188.58s-.47-5.85,5.23-5.85h29.72c5,0,4.47,6.7,4.47,6.7l0,11.47"/><line class="cls-3" x1="246.22" y1="188.58" x2="285.65" y2="188.58"/><polygon class="cls-3" points="235.18 206.24 266.18 191.25 296.37 206.24 235.18 206.24"/><polygon class="cls-3" points="235.18 206.24 237.34 211.89 294.11 211.89 296.37 206.24 235.18 206.24"/><rect class="cls-3" x="242.67" y="211.89" width="5.34" height="38.4"/><rect class="cls-3" x="256.4" y="211.89" width="5.34" height="38.4"/><rect class="cls-3" x="270.12" y="211.89" width="5.34" height="38.4"/><rect class="cls-3" x="283.84" y="211.89" width="5.34" height="38.4"/><line class="cls-3" x1="251.45" y1="161.02" x2="280.25" y2="161.02"/><line class="cls-3" x1="255.22" y1="150.31" x2="255.22" y2="161.02"/><line class="cls-3" x1="259.69" y1="151.7" x2="259.69" y2="161.02"/><line class="cls-3" x1="263.39" y1="153.39" x2="263.39" y2="161.02"/><line class="cls-3" x1="275.95" y1="150.31" x2="275.95" y2="161.02"/><line class="cls-3" x1="271.48" y1="151.7" x2="271.48" y2="161.02"/><line class="cls-3" x1="267.78" y1="153.39" x2="267.78" y2="161.02"/><polygon class="cls-3" points="101.03 250.28 107.42 77.96 118.49 56.35 129.59 77.97 136.73 250.28 101.03 250.28"/><line class="cls-3" x1="118.49" y1="56.71" x2="118.49" y2="250.28"/><line class="cls-3" x1="107.67" y1="77.48" x2="129.23" y2="77.27"/><rect class="cls-3" x="64.49" y="178.54" width="48.52" height="71.74"/><polygon class="cls-3" points="111.35 169.42 66.98 169.42 59.52 178.54 117.99 178.54 111.35 169.42"/><rect class="cls-3" x="71.34" y="187.11" width="9.12" height="11.13"/><line class="cls-3" x1="71.54" y1="192.12" x2="80.25" y2="192.12"/><rect class="cls-3" x="97.05" y="187.11" width="9.12" height="11.13"/><line class="cls-3" x1="97.25" y1="192.12" x2="105.96" y2="192.12"/><rect class="cls-3" x="97.05" y="205.77" width="9.12" height="11.13"/><line class="cls-3" x1="97.25" y1="210.78" x2="105.96" y2="210.78"/><rect class="cls-3" x="71.34" y="205.77" width="9.12" height="11.13"/><line class="cls-3" x1="71.54" y1="210.78" x2="80.25" y2="210.78"/><rect class="cls-3" x="71.34" y="223.4" width="9.12" height="11.13"/><line class="cls-3" x1="71.54" y1="228.41" x2="80.25" y2="228.41"/><rect class="cls-3" x="97.05" y="223.4" width="9.12" height="11.13"/><line class="cls-3" x1="97.25" y1="228.41" x2="105.96" y2="228.41"/><line class="cls-3" x1="85.02" y1="178.54" x2="85.02" y2="250.28"/><line class="cls-3" x1="92.28" y1="178.54" x2="92.28" y2="250.28"/><polygon class="cls-4" points="142.92 251.54 163.08 216.62 183.24 251.54 250.38 251.54 163.08 100.33 75.78 251.54 142.92 251.54"/><polygon class="cls-2" points="142.92 251.54 163.08 216.62 183.24 251.54 215.46 251.54 163.08 160.82 110.7 251.54 142.92 251.54"/></g></g></svg>